<svg width="400" height="270" viewBox="0 0 400 270" version="1.1" xmlns="http://www.w3.org/2000/svg" xmlns:xlink="http://www.w3.org/1999/xlink">
<title>compost</title>
<desc>Created using Figma</desc>
<g id="Canvas" transform="translate(-733 -272)">
<g id="compost">
<g id="Group">
<g id="Group">
<g id="Vector">
<use xlink:href="#path0_fill" transform="translate(812.13 272)" fill="#FFFFFF"/>
</g>
<g id="Vector">
<use xlink:href="#path1_fill" transform="translate(733 289.391)" fill="#FFFFFF"/>
</g>
<g id="Vector">
<use xlink:href="#path2_fill" transform="translate(786.043 460.695)" fill="#FFFFFF"/>
</g>
</g>
</g>
</g>
</g>
<defs>
<path id="path0_fill" d="M 206.957 31.3043C 200.87 13.0435 184.348 0 164.348 0C 150.435 0 138.261 6.08695 129.565 16.5217C 120 9.56521 108.696 5.21739 96.5217 5.21739C 73.913 5.21739 54.7826 18.2609 46.087 38.2609C 24.3478 40 6.08696 55.6522 3.31713e-06 75.6522L 229.565 49.5652C 225.217 40.8696 216.522 33.0435 206.957 31.3043Z"/>
<path id="path1_fill" d="M 361.739 0L 313.913 43.4783C 313.043 43.4783 312.174 43.4783 311.304 43.4783L 74.7826 69.5652C 67.8261 70.4348 62.6087 75.6522 60.8696 82.6087C 59.1304 89.5652 61.7391 97.3913 67.8261 100.87L 113.913 131.304L 106.957 137.391C 95.6522 127.826 80.8696 120.87 64.3478 120.87C 29.5652 121.739 0 151.304 0 186.957C 0 222.609 29.5652 252.174 65.2174 252.174C 100.87 252.174 130.435 222.609 130.435 186.957C 130.435 173.913 126.087 160.87 119.13 151.304L 129.565 142.609L 174.783 172.174C 177.391 173.913 180.87 174.783 184.348 174.783C 185.217 174.783 186.087 174.783 186.957 174.783L 227.826 168.696L 270.435 229.565C 274.783 236.522 281.739 240.87 290.435 240.87L 293.913 240.87C 306.087 240.87 316.522 230.435 316.522 218.261L 305.217 155.652C 308.696 153.043 311.304 149.565 312.174 145.217L 326.957 65.2174C 327.826 62.6087 326.957 59.1304 326.087 56.5217L 366.957 18.2609L 400 18.2609L 400 0.869569L 361.739 0.869569L 361.739 0ZM 66.087 228.696C 43.4783 228.696 24.3478 210.435 24.3478 186.957C 24.3478 163.478 42.6087 145.217 66.087 145.217C 89.5652 145.217 107.826 163.478 107.826 186.957C 107.826 210.435 88.6957 228.696 66.087 228.696ZM 293.913 222.609L 290.435 222.609C 288.696 222.609 286.957 221.739 286.087 220L 247.826 165.217L 289.565 159.13L 300 218.261C 299.13 220.87 297.391 222.609 293.913 222.609Z"/>
<path id="path2_fill" d="M 13.0435 26.087C 20.2472 26.087 26.087 20.2472 26.087 13.0435C 26.087 5.83977 20.2472 6.63426e-06 13.0435 6.63426e-06C 5.83977 6.63426e-06 3.31713e-06 5.83977 3.31713e-06 13.0435C 3.31713e-06 20.2472 5.83977 26.087 13.0435 26.087Z"/>
</defs>
</svg>
