<svg width="400" height="351" viewBox="0 0 400 351" version="1.1" xmlns="http://www.w3.org/2000/svg" xmlns:xlink="http://www.w3.org/1999/xlink">
<title>food</title>
<desc>Created using Figma</desc>
<g id="Canvas" transform="translate(314 664)">
<g id="food">
<g id="Group">
<g id="Vector">
<use xlink:href="#path0_fill" transform="translate(-314 -529.2)" fill="#FFFFFF"/>
</g>
<g id="Vector">
<use xlink:href="#path1_fill" transform="translate(-314 -376.48)" fill="#FFFFFF"/>
</g>
<g id="Vector">
<use xlink:href="#path2_fill" transform="translate(-308.08 -408.56)" fill="#FFFFFF"/>
</g>
<g id="Vector">
<use xlink:href="#path3_fill" transform="translate(-314 -395.68)" fill="#FFFFFF"/>
</g>
<g id="Vector">
<use xlink:href="#path4_fill" transform="translate(-96.624 -664)" fill="#FFFFFF"/>
</g>
</g>
</g>
</g>
<defs>
<path id="path0_fill" d="M 216 13.6C 195.36 4.96 171.84 -4.88281e-06 146.8 -4.88281e-06C 66.4 -4.88281e-06 1.04 50.8 0 113.76L 226.24 113.76L 216 13.6ZM 31.52 81.68L 30.32 80.4L 34.8 76.48L 36 77.76L 31.52 81.68ZM 91.2 50.8L 90 49.52L 94.48 45.6L 95.68 46.88L 91.2 50.8ZM 110.96 99.6L 109.76 98.32L 114.24 94.4L 115.44 95.68L 110.96 99.6ZM 116.56 69.36L 115.36 68.08L 119.84 64.16L 121.04 65.44L 116.56 69.36ZM 131.36 28.4L 130.16 27.12L 134.64 23.2L 135.84 24.48L 131.36 28.4ZM 169.12 58.24L 173.6 54.32L 174.8 55.6L 170.32 59.52L 169.12 58.24ZM 173.12 96.96L 171.92 95.68L 176.4 91.76L 177.6 93.04L 173.12 96.96ZM 189.04 34.96L 187.84 33.68L 192.32 29.76L 193.52 31.04L 189.04 34.96ZM 211.76 60.88L 216.24 56.96L 217.44 58.24L 212.96 62.16L 211.76 60.88Z"/>
<path id="path1_fill" d="M 232.72 24.72C 230.72 25.92 228.48 26.96 226 27.92C 216.32 31.6 204.32 32.8 194.16 29.92C 172.16 23.68 165.44 1.36 138.48 1.84C 128.8 2 119.76 5.28001 111.92 9.12001C 102.4 13.84 93.68 19.2 83.76 23.6C 70.64 29.36 53.44 33.04 39.36 28.32C 25.52 23.68 19.28 10.08 15.04 -9.76563e-06L 0 -9.76563e-06L 0 18.72C 0 43.2 12.32 63.12 27.44 63.12L 239.2 63.12C 237.28 60.32 236 57.04 235.68 53.44L 232.72 24.72Z"/>
<path id="path2_fill" d="M -3.05176e-07 3.44C -3.05176e-07 5.36 1.52 6.87999 3.44 6.87999L 221.76 6.87999L 221.04 9.76562e-06L 3.44 9.76562e-06C 1.52 9.76562e-06 -3.05176e-07 1.52 -3.05176e-07 3.44Z"/>
<path id="path3_fill" d="M 6.16 12.32L 229.52 12.32L 228.24 -9.76563e-06L 6.16 -9.76563e-06C 2.8 -9.76563e-06 7.10543e-16 2.72 7.10543e-16 6.16C 1.42109e-15 9.6 2.72 12.32 6.16 12.32Z"/>
<path id="path4_fill" d="M 143.424 5.92L 182.624 5.92L 182.624 1.2207e-06L 143.424 1.2207e-06C 133.824 1.2207e-06 125.504 6.16 122.704 15.36L 108.704 61.28L 11.7441 61.28C 4.78407 61.28 -0.655935 67.28 0.0640653 74.24L 27.2641 340.08C 27.9041 346.08 32.9441 350.64 38.9441 350.64L 75.5041 350.64L 76.3841 350.64L 112.944 350.64C 118.944 350.64 124.064 346.08 124.624 340.08L 151.824 74.24C 152.544 67.28 147.104 61.28 140.144 61.28L 115.024 61.28L 128.544 17.12C 130.384 10.4 136.464 5.92 143.424 5.92Z"/>
</defs>
</svg>
