<svg width="400" height="400" viewBox="0 0 400 400" version="1.1" xmlns="http://www.w3.org/2000/svg" xmlns:xlink="http://www.w3.org/1999/xlink">
<title>planet</title>
<desc>Created using Figma</desc>
<g id="Canvas" transform="translate(314 -207)">
<g id="planet">
<g id="Vector">
<use xlink:href="#path0_fill" transform="translate(-314 207)" fill="#FFFFFF"/>
</g>
</g>
</g>
<defs>
<path id="path0_fill" fill-rule="evenodd" d="M -5.45829e-07 200C -5.45829e-07 310.5 89.502 400 200 400C 310.5 400 400 310.5 400 200C 400 89.502 310.5 -5.45829e-07 200 -5.45829e-07C 89.502 -5.45829e-07 -5.45829e-07 89.502 -5.45829e-07 200ZM 41.6655 200C 41.6655 187.166 43.1679 174.666 46.081 162.752L 83.3319 200L 74.9999 250L 108.333 283.332L 108.333 329.085C 68.0015 300.417 41.6655 253.256 41.6655 200ZM 163.582 45.914C 175.249 43.0826 187.419 41.6664 200 41.6664C 213.917 41.6664 227.417 43.5008 240.25 46.834L 233.333 58.335L 241.666 66.667L 266.668 66.667L 273.586 59.7502C 279.411 62.8339 284.914 66.1671 290.251 69.9167L 275.003 74.9999L 258.334 91.6657L 275.003 99.9995L 275.003 108.333L 258.334 108.333L 258.334 124.999C 258.334 124.999 269.832 133.333 283.332 133.333C 296.584 133.333 290.668 115.083 300.001 108.333C 309.418 101.582 320.836 103.083 320.836 103.083L 326.253 104.499C 336.42 117.915 344.498 132.918 350.001 149.165L 350.001 149.999C 350.001 149.999 338.249 141.665 316.669 141.665C 295.087 141.665 275.003 149.999 275.003 149.999C 275.003 149.999 251.497 156.835 250 174.999C 247.414 206.248 258.334 216.667 258.334 216.667L 300.001 241.665L 300.001 322.755C 272.755 345.003 237.917 358.334 200 358.334C 182.085 358.334 164.917 355.422 148.833 349.919L 191.666 249.999L 183.334 208.333C 183.334 208.333 150.249 166.666 133.334 166.666C 116.42 166.666 108.334 191.665 108.334 191.665L 91.6666 158.334L 141.666 124.999L 166.667 58.3331L 163.582 45.914Z"/>
</defs>
</svg>
