<svg width="400" height="388" viewBox="0 0 400 388" version="1.1" xmlns="http://www.w3.org/2000/svg" xmlns:xlink="http://www.w3.org/1999/xlink">
<title>recycle</title>
<desc>Created using Figma</desc>
<g id="Canvas" transform="translate(-733 664)">
<g id="recycle">
<g id="Vector">
<use xlink:href="#path0_fill" transform="translate(733 -664)" fill="#FFFFFF"/>
</g>
</g>
</g>
<defs>
<path id="path0_fill" d="M 186.386 265.689L 182.977 349.335L 182.522 354.336L 87.056 347.744C 81.6008 347.289 76.5244 344.903 71.8269 340.584C 67.1293 336.265 63.5683 331.303 61.1438 325.696C 59.4769 321.605 58.3783 317.437 57.8479 313.194C 57.3175 308.951 57.6206 304.027 58.7571 298.42C 59.8936 292.813 60.8028 288.646 61.4847 285.918C 62.1666 283.191 63.7956 278.342 66.3717 271.371C 68.9477 264.401 70.3873 260.385 70.6904 259.324C 82.51 261.143 121.075 263.264 186.386 265.689ZM 98.421 132.491L 139.335 218.638L 105.922 197.726C 96.3753 208.636 87.9273 219.585 80.5779 230.571C 73.2285 241.557 67.7355 251.028 64.0987 258.983C 60.4619 266.939 57.4691 274.099 55.1203 280.463C 52.7715 286.828 51.3698 291.601 50.9152 294.783L 50.006 299.556L 6.81901 218.41C 4.24294 214.47 2.87914 210.227 2.7276 205.681C 2.57607 201.135 3.03067 197.574 4.0914 194.998L 5.90981 190.907C 11.2135 181.36 19.8509 167.116 31.822 148.174L 0 128.627L 98.421 132.491ZM 378.228 250.005L 335.495 331.606C 333.677 336 330.911 339.523 327.199 342.175C 323.486 344.827 320.19 346.38 317.311 346.835L 313.22 347.744C 302.461 348.805 285.868 349.714 263.441 350.472L 265.259 387.749L 212.98 304.33L 260.941 222.047L 262.532 261.37C 288.292 263.795 309.734 264.173 326.858 262.506C 343.981 260.84 356.861 258.339 365.499 255.006L 378.228 250.005ZM 199.797 39.9796C 192.675 49.5262 172.597 82.4847 139.562 138.855L 67.5082 96.35L 63.1895 93.6224L 114.332 12.7036C 117.363 8.00602 121.909 4.59652 127.97 2.47505C 134.031 0.353578 140.093 -0.404089 146.154 0.202045C 149.791 0.505112 153.466 1.41431 157.178 2.92965C 160.891 4.44498 164.073 6.03608 166.725 7.70295C 169.377 9.36982 172.521 11.8701 176.158 15.2039C 179.794 18.5376 182.522 21.1515 184.34 23.0457C 186.159 24.9399 188.886 27.9327 192.523 32.0241C 196.16 36.1155 198.585 38.7673 199.797 39.9796ZM 348.679 109.761L 396.866 192.271C 399.594 197.877 400.541 203.636 399.707 209.546C 398.874 215.455 396.79 221.062 393.457 226.366C 391.487 229.396 388.986 232.2 385.956 234.776C 382.925 237.352 380.046 239.473 377.318 241.14C 374.591 242.807 370.916 244.474 366.294 246.141C 361.673 247.808 358.111 249.02 355.611 249.778C 353.111 250.535 349.209 251.596 343.905 252.96C 338.602 254.324 335.116 255.233 333.449 255.687C 328.297 244.777 308.219 211.743 273.215 156.585L 344.36 112.261L 348.679 109.761ZM 316.175 58.3909L 348.451 39.525L 298.445 124.308L 203.206 119.762L 237.529 100.214C 232.377 86.7277 226.694 74.1504 220.481 62.4823C 214.268 50.8142 208.548 41.457 203.32 34.4107C 198.092 27.3644 193.205 21.3031 188.659 16.2267C 184.113 11.1503 180.552 7.62718 177.976 5.65725L 174.112 2.70235L 266.169 2.92965C 270.866 2.47505 275.261 3.2706 279.352 5.3163C 283.443 7.362 286.398 9.52135 288.217 11.7944L 290.717 15.2039C 296.627 24.4474 305.113 38.8431 316.175 58.3909Z"/>
</defs>
</svg>
