<svg width="968" height="968" viewBox="0 0 968 968" version="1.1" xmlns="http://www.w3.org/2000/svg" xmlns:xlink="http://www.w3.org/1999/xlink">
<title>Vector</title>
<desc>Created using Figma</desc>
<g id="Canvas" transform="translate(2878 -6460)">
<g id="Vector">
<use xlink:href="#path0_fill" transform="translate(-2878 6460)" fill="url(#paint0_linear)"/>
</g>
</g>
<defs>
<linearGradient id="paint0_linear" x1="0" y1="0" x2="1" y2="0" gradientUnits="userSpaceOnUse" gradientTransform="matrix(5.92729e-14 968 -968 5.92729e-14 1452 -8.89094e-14)">
<stop offset="0" stop-color="#5AAD16"/>
<stop offset="1" stop-color="#4C871B"/>
</linearGradient>
<path id="path0_fill" d="M 483.983 0C 217.138 0 0 217.112 0 484C 0 750.888 217.138 968 483.983 968C 750.862 968 968 750.923 968 484C 968 217.112 750.862 0 483.983 0ZM 390.924 173.279L 413.539 179.702L 413.539 149.945L 422.353 141.644L 431.782 159.955L 449.752 181.649L 442.475 191.625L 413.505 198.287L 413.505 180.659L 390.89 198.287L 384.33 188.277L 390.924 173.279ZM 42.3276 473.204C 44.5823 379.527 76.1145 293.195 128.178 222.578C 129.921 222.817 131.151 223.261 131.151 223.261C 131.151 229.923 122.063 231.529 131.151 248.269C 142.766 269.929 132.79 279.939 132.79 279.939C 132.79 279.939 104.435 299.925 99.4476 303.273C 94.4599 306.587 81.1364 324.933 89.4379 319.911C 97.7736 314.923 107.749 309.935 99.4476 323.259C 91.1119 336.617 76.1145 358.243 72.8007 366.613C 69.4869 374.983 52.8155 394.935 52.8155 404.945C 52.8155 414.955 46.1538 434.975 47.8278 443.311C 48.9551 449.084 45.2314 466.201 42.3276 473.204ZM 214.439 751.572L 207.743 776.511L 214.439 796.497C 214.439 796.497 204.395 804.867 197.802 804.867C 191.653 804.867 189.569 808.728 182.839 806.951C 119.296 747.575 73.1765 669.954 53.1913 582.29C 55.3436 582.836 58.4182 584.408 62.7569 588.234C 69.0428 593.7 72.7665 596.502 81.1022 599.884C 89.4038 603.266 92.7517 608.186 102.761 613.174C 112.771 618.23 109.457 614.882 122.747 629.88C 136.104 644.844 134.43 644.844 137.744 653.18C 141.058 661.516 146.08 669.852 149.428 674.874C 152.776 679.896 162.751 683.21 167.739 686.558C 172.727 689.872 181.062 693.22 186.05 693.22C 191.072 693.22 206.069 708.218 214.405 709.858C 222.741 711.566 222.741 728.238 222.741 728.238L 214.439 751.572ZM 281.091 108.334C 259.432 131.634 264.419 124.972 259.432 131.634C 254.444 138.295 256.084 139.935 244.4 148.306C 232.75 156.607 227.763 166.617 227.763 166.617L 209.417 173.279L 194.454 166.617C 194.454 166.617 181.062 171.639 182.736 164.943C 183.215 163.201 183.898 161.356 184.684 159.409C 225.474 121.76 273.199 91.7984 325.878 71.505C 320.685 78.167 314.399 84.9998 314.399 84.9998C 314.399 84.9998 302.75 84.9656 281.091 108.334ZM 789.329 706.544C 787.587 713.171 784.341 724.856 782.667 731.518C 780.993 738.179 772.658 751.538 767.704 754.851C 762.716 758.199 754.347 768.21 749.393 769.884C 744.405 771.558 741.023 758.165 742.697 751.537C 744.439 744.807 752.707 726.53 752.707 726.53C 752.707 726.53 754.381 716.554 756.055 709.858C 757.763 703.264 777.748 694.894 777.748 694.894L 791.106 669.886C 791.106 669.886 792.78 676.582 792.78 681.57C 792.677 686.524 791.003 699.882 789.329 706.544ZM 794.317 549.902C 790.969 554.89 780.959 568.18 775.972 574.842C 770.984 581.504 764.356 591.514 754.347 599.85C 744.337 608.186 744.269 616.453 739.349 623.218C 734.361 629.88 727.665 644.844 727.665 644.844C 727.665 644.844 731.013 678.222 732.653 684.884C 734.361 691.546 721.004 709.823 721.004 709.823L 706.006 724.821L 685.919 751.503L 687.524 776.443C 687.524 776.443 672.39 788.127 664.02 794.789C 655.753 801.451 657.051 806.439 650.389 813.135C 643.796 819.729 626.1 831.413 619.438 833.121C 612.81 834.795 584.49 839.749 584.49 839.749L 584.49 824.785L 575.266 808.113C 575.266 808.113 566.008 788.161 560.986 781.431C 555.998 774.803 556.032 764.759 547.696 756.457C 539.361 748.121 535.295 741.493 533.621 736.437C 531.913 731.449 534.851 716.485 534.851 716.485C 534.851 716.485 541.274 698.139 544.622 691.512C 547.97 684.85 544.519 674.84 541.137 668.143C 537.789 661.447 536.149 644.775 536.149 639.822C 536.149 634.868 522.689 626.429 517.736 621.476C 512.748 616.453 514.388 609.792 514.388 603.164C 514.388 596.502 509.4 581.47 511.006 569.82C 512.68 558.17 496.042 566.438 486.067 569.82C 476.057 573.134 469.43 566.438 469.43 556.428C 469.43 546.486 451.118 554.822 439.435 561.415C 427.717 568.077 414.428 568.077 401.036 573.065C 387.747 578.053 381.119 568.077 381.119 568.077C 381.119 568.077 369.401 558.067 361.134 553.079C 352.764 548.091 344.428 538.116 337.732 529.78C 331.105 521.409 314.399 496.402 312.794 486.46C 311.12 476.416 312.794 469.719 312.794 458.07C 312.794 446.42 312.794 439.758 314.433 431.422C 316.107 423.086 321.095 413.076 326.117 404.74C 331.105 396.404 349.45 386.428 354.404 383.08C 359.392 379.766 371.075 369.79 371.075 363.094C 371.075 356.432 377.771 353.118 381.051 346.422C 384.433 339.76 396.082 323.122 411.08 329.784C 411.08 329.784 424.369 328.144 429.357 326.47C 434.345 324.796 447.668 319.842 454.261 316.494C 460.923 313.146 477.526 311.575 477.526 311.575C 477.526 311.575 490.645 316.802 495.632 316.802C 500.62 316.802 516.916 313.898 516.916 313.898C 516.916 313.898 524.432 338.052 524.432 343.074C 524.432 348.096 529.419 353.05 537.823 356.398C 546.091 359.712 584.455 368.048 601.161 354.724C 605.021 351.649 617.764 359.712 617.764 359.712C 617.764 359.712 659.408 368.048 666.07 373.036C 672.766 378.058 684.415 381.406 687.763 386.428C 691.146 391.416 702.727 406.414 704.366 411.402C 706.109 416.39 714.444 434.77 716.118 441.398C 717.792 448.06 722.746 464.732 727.734 473.068C 732.722 481.438 761.111 518.027 771.086 534.733L 801.149 529.745C 801.013 529.916 797.665 544.914 794.317 549.902ZM 915.97 486.631C 914.33 479.935 904.321 456.601 904.321 456.601C 904.321 456.601 894.311 443.277 887.649 439.929C 881.022 436.581 876 428.245 864.316 421.617C 852.633 414.921 847.679 411.607 837.704 411.607C 827.66 411.607 817.718 398.249 806.001 391.587C 794.317 384.959 792.643 388.273 792.643 388.273C 792.643 388.273 806.001 408.259 806.001 413.247C 806.001 418.234 820.964 426.57 836.03 423.222C 836.03 423.222 846.005 441.568 850.993 446.556C 855.981 451.544 849.319 456.566 839.343 463.228C 829.334 469.856 831.042 468.216 825.952 473.204C 820.964 478.192 804.327 486.596 799.305 489.876C 794.317 493.19 774.332 503.2 764.39 493.19C 759.471 488.373 760.974 478.226 757.729 471.53C 754.381 464.868 719.398 413.212 702.727 389.913C 699.823 385.813 692.717 373.172 687.763 369.927C 682.776 366.545 699.481 366.545 699.481 366.545C 699.481 366.545 699.481 354.86 697.773 346.559C 696.099 338.223 699.481 326.573 699.481 326.573C 699.481 326.573 682.81 336.549 677.754 339.897C 672.766 343.245 667.744 333.269 661.151 324.899C 654.489 316.597 647.793 306.553 646.153 298.217C 644.479 289.915 654.489 286.567 654.489 286.567L 669.452 278.265C 669.452 278.265 687.798 274.951 699.515 276.591C 711.165 278.265 729.476 279.939 729.476 279.939C 729.476 279.939 734.464 268.255 727.768 263.267C 721.175 258.279 706.075 249.943 699.447 251.617C 692.82 253.257 702.761 243.281 711.062 236.619L 692.615 233.271C 692.615 233.271 675.841 241.607 670.785 243.281C 665.797 244.921 657.154 248.269 650.424 256.605C 643.83 264.941 653.088 276.591 646.427 279.939C 639.833 283.287 635.29 284.927 630.268 286.567C 625.28 288.241 609.463 286.567 609.463 286.567C 592.245 286.567 603.245 302.282 607.72 307.851L 594.397 291.589L 584.524 268.221C 584.524 268.221 570.312 258.245 563.685 254.931C 556.954 251.617 536.457 239.933 536.457 239.933L 537.858 254.931L 557.159 274.473L 558.868 274.917L 570.688 288.241L 550.259 289.915L 550.259 276.762C 516.096 271.706 533.041 266.513 530.717 264.907C 525.764 261.593 513.295 253.223 513.295 253.223C 513.295 253.223 493.207 256.571 488.219 258.245C 483.197 259.919 481.626 264.907 471.65 268.221C 461.606 271.569 456.96 276.557 453.646 281.545C 450.333 286.533 439.435 301.531 432.841 308.193C 426.145 314.889 413.642 313.18 408.654 313.18C 403.632 313.18 379.479 306.519 379.479 306.519L 379.479 278.265C 379.479 278.265 382.827 262.413 381.153 257.425L 395.809 254.965L 420.167 249.943L 427.341 244.921L 437.59 231.597C 437.59 231.597 426.077 223.261 434.379 211.611C 438.376 206.008 452.758 204.949 459.42 199.961C 466.048 194.973 476.126 191.625 476.126 191.625C 476.126 191.625 487.809 181.649 499.459 169.965C 499.459 169.965 507.794 164.943 517.77 161.595C 517.77 161.595 546.125 186.603 551.147 186.603C 556.169 186.603 574.514 174.953 574.514 174.953C 574.514 174.953 579.502 159.99 577.862 154.967C 576.188 149.98 567.852 133.308 567.852 133.308C 567.852 133.308 562.865 141.644 557.911 148.306C 552.923 154.967 549.507 163.303 549.507 163.303C 549.507 163.303 526.14 161.698 524.534 156.71C 522.826 151.688 519.546 143.454 517.838 138.5C 516.233 133.478 502.875 133.649 492.934 136.997C 482.89 140.345 494.539 119.027 494.539 119.027C 494.539 119.027 504.583 106.455 511.211 106.455C 517.804 106.455 532.904 97.9137 539.497 96.2739C 546.159 94.5998 566.213 81.7884 574.48 81.7884C 582.816 81.7884 592.825 80.2168 597.881 80.2168C 602.869 80.2168 622.82 80.2168 622.82 80.2168L 657.769 82.5742C 657.769 82.5742 687.798 96.2397 677.72 102.936C 677.72 102.936 689.472 111.477 694.459 116.465C 699.14 121.179 711.199 112.775 718.134 108.915C 842.828 187.218 926.219 325.924 926.219 483.727C 926.219 492.199 925.467 500.638 924.989 509.008C 921.778 501.082 917.098 491.004 915.97 486.631Z"/>
</defs>
</svg>
